# xmcd
#
# Track frame offsets: 
#        150
#        12817
#        60795
#        102145
#        160160
#        196700
#        262715
#
# Disc length: 3606 seconds
#
# Revision: 1
# Processed by: cddbd v1.5.2PL0 Copyright (c) Steve Scherf et al.
# Submitted via: ExactAudioCopy v1.1
#
DISCID=3f0e1407
DTITLE=Miles Davis Quintet - Miles Davis - Seven Steps - Complete 1963
DTITLE=1964 - Disc 4
DYEAR=2004
DGENRE=Jazz
TTITLE0=Introduction By Mort Fega (live at Philharmonic Hall, NYC 02-1
TTITLE0=2-64) (stereo)
TTITLE1=Autumn Leaves (live at Philharmonic Hall, NYC 02-12-64) (stere
TTITLE1=o)
TTITLE2=So What (live at Philharmonic Hall, NYC 02-12-64) (stereo)
TTITLE3=Stella By Starlight (live at Philharmonic Hall, NYC 02-12-64) 
TTITLE3=(stereo)
TTITLE4=Walkin' (live at Philharmonic Hall, NYC 02-12-64) (stereo)
TTITLE5=All Of You (live at Philharmonic Hall, NYC 02-12-64) (stereo)
TTITLE6=Go-Go (Theme And Announcement) (live at Philharmonic Hall, NYC
TTITLE6=02-12-64) (stereo)
EXTD=YEAR: 2004
EXTT0=
EXTT1=
EXTT2=
EXTT3=
EXTT4=
EXTT5=
EXTT6=
PLAYORDER=
